<svg width="22" height="22" viewBox="0 0 22 22" xmlns="http://www.w3.org/2000/svg">
<path d="M17.8571 8.76923V15.6923C17.8571 16.3043 17.6163 16.8913 17.1877 17.3241C16.759 17.7569 16.1776 18 15.5714 18H6.42857C5.82236 18 5.24098 17.7569 4.81233 17.3241C4.38367 16.8913 4.14286 16.3043 4.14286 15.6923V8.76923C3.83975 8.76923 3.54906 8.64766 3.33474 8.43128C3.12041 8.21489 3 7.9214 3 7.61538V4.15385C3 3.84783 3.12041 3.55434 3.33474 3.33795C3.54906 3.12157 3.83975 3 4.14286 3H17.8571C18.1602 3 18.4509 3.12157 18.6653 3.33795C18.8796 3.55434 19 3.84783 19 4.15385V7.61538C19 7.9214 18.8796 8.21489 18.6653 8.43128C18.4509 8.64766 18.1602 8.76923 17.8571 8.76923ZM5.28571 15.6923C5.28571 15.9983 5.40612 16.2918 5.62045 16.5082C5.83478 16.7246 6.12547 16.8462 6.42857 16.8462H15.5714C15.8745 16.8462 16.1652 16.7246 16.3796 16.5082C16.5939 16.2918 16.7143 15.9983 16.7143 15.6923V8.76923H5.28571V15.6923ZM17.8571 4.15385H4.14286V7.61538H17.8571V4.15385ZM12.7143 12.2308H9.28571C9.13416 12.2308 8.98882 12.17 8.88165 12.0618C8.77449 11.9536 8.71429 11.8069 8.71429 11.6538C8.71429 11.5008 8.77449 11.3541 8.88165 11.2459C8.98882 11.1377 9.13416 11.0769 9.28571 11.0769H12.7143C12.8658 11.0769 13.0112 11.1377 13.1183 11.2459C13.2255 11.3541 13.2857 11.5008 13.2857 11.6538C13.2857 11.8069 13.2255 11.9536 13.1183 12.0618C13.0112 12.17 12.8658 12.2308 12.7143 12.2308Z" />
</svg>
